<?xml version="1.0" encoding="utf-8"?>
<!-- Svg Vector Icons : http://www.onlinewebfonts.com/icon -->
<!DOCTYPE svg PUBLIC "-//W3C//DTD SVG 1.1//EN" "http://www.w3.org/Graphics/SVG/1.1/DTD/svg11.dtd">
<svg version="1.1" xmlns="http://www.w3.org/2000/svg" xmlns:xlink="http://www.w3.org/1999/xlink" x="0px" y="0px" viewBox="0 0 1000 1000" enable-background="new 0 0 1000 1000" xml:space="preserve">
<metadata> Svg Vector Icons : http://www.onlinewebfonts.com/icon </metadata>
<g><path d="M647,656.8c0,0-41.7-28-87.6,18.8c0,0-37.8,42-79.5-11.6c0,0-115.2-126.5-150.7-268c0,0-8.6-24.9,23.9-30.1c0,0,87.6-18.8,98.1-58.3L398.9,39.5c0,0-15.8-48.9-77-20.7c0,0-104.6,26.7-150.5,71.7l-8.5,19.3l-9.4,75.5c0,0,4.9,511.3,447.6,798c0,0,151.6,46.6,234.8-106.2l10.6-39.5L647,656.8z"/></g>
</svg>