<?xml version="1.0" encoding="utf-8"?>
<!-- Generator: Adobe Illustrator 19.0.0, SVG Export Plug-In . SVG Version: 6.00 Build 0)  -->
<svg version="1.1" id="Layer_1" xmlns="http://www.w3.org/2000/svg" xmlns:xlink="http://www.w3.org/1999/xlink" x="0px" y="0px"
	 viewBox="950 -450.5 1000 698.2" style="enable-background:new 950 -450.5 1000 698.2;" xml:space="preserve">
<style type="text/css">
	.st0{fill:#FFFFFF;stroke:#000000;stroke-width:7;stroke-miterlimit:10;}
	.st1{font-family:'MyriadPro-Regular';}
	.st2{font-size:400px;}
</style>
<g>
	<path d="M1024.8,26.6h850.3c0,0-52.4-330.9-383.3-357.1v-45.4c0-22.4-21.3-40.6-43.2-41.1l0,0c-21.9,0-42.2,18.7-42.2,40.6v45.4
		C1070.2-307.5,1024.8,26.6,1024.8,26.6z M1231.3-193.3c70.5-76.3,175.1-74.2,175.1-74.2v13.4c0,0-61.9,15-105.7,55
		c-65.2,59.2-76.9,136.6-80.1,161.7c-17.6,6.4-56,18.1-56,18.1S1160.9-117,1231.3-193.3z"/>
	<path d="M965.6,89.1c18.7,28.8,80.6,52.3,80.6,52.3s786.2,0,807,0.5c16-1.6,81.1-42.2,85.9-58.2c4.8-15.4-11.2-19.7-11.2-19.7
		H967.1C967.1,64,952.2,66.1,965.6,89.1z"/>
</g>
<text transform="matrix(1 0 0 1 1656.736 197.6569)" class="st0 st1 st2">+</text>
</svg>
