<?xml version="1.0" encoding="utf-8"?>
<!-- Generator: Adobe Illustrator 19.0.0, SVG Export Plug-In . SVG Version: 6.00 Build 0)  -->
<svg version="1.1" id="Layer_1" xmlns="http://www.w3.org/2000/svg" xmlns:xlink="http://www.w3.org/1999/xlink" x="0px" y="0px"
	 viewBox="450 -450 1000 1000" style="enable-background:new 450 -450 1000 1000;" xml:space="preserve">
<style type="text/css">
	.st0{fill:#FFFFFF;stroke:#000000;stroke-width:7;stroke-miterlimit:10;}
	.st1{font-family:'MyriadPro-Regular';}
	.st2{font-size:400px;}
</style>
<g>
	<g>
		<path d="M1235.3-148.9c-15.6-21.3-37.4-46.2-61.3-70.1s-48.8-45.7-70.1-61.3c-36.3-26.6-53.8-29.7-63.9-29.7H691.3
			c-31,0-56.3,25.2-56.3,56.3v607.4c0,31,25.2,56.3,56.3,56.3h517.5c31,0,56.3-25.2,56.3-56.3V-84.9
			C1265-95.1,1261.9-112.6,1235.3-148.9z M1142.2-187.2c21.6,21.6,38.5,41.1,51.1,57.2H1085v-108.2
			C1101.1-225.7,1120.6-208.8,1142.2-187.2L1142.2-187.2z M1220,353.7c0,6.1-5.1,11.2-11.2,11.2H691.3c-6.1,0-11.2-5.1-11.2-11.2
			v-607.4c0-6.1,5.1-11.2,11.2-11.2c0,0,348.6,0,348.7,0v157.5c0,12.4,10.1,22.5,22.5,22.5H1220V353.7z"/>
		<path d="M1107.5,275h-315c-12.4,0-22.5-10.1-22.5-22.5s10.1-22.5,22.5-22.5h315c12.4,0,22.5,10.1,22.5,22.5S1119.9,275,1107.5,275
			z"/>
		<path d="M1107.5,185h-315c-12.4,0-22.5-10.1-22.5-22.5s10.1-22.5,22.5-22.5h315c12.4,0,22.5,10.1,22.5,22.5S1119.9,185,1107.5,185
			z"/>
		<path d="M1107.5,95h-315C780.1,95,770,85,770,72.6s10.1-22.5,22.5-22.5h315c12.4,0,22.5,10.1,22.5,22.5S1119.9,95,1107.5,95z"/>
	</g>
</g>
<text transform="matrix(1 0 0 1 1031.736 488.1074)" class="st0 st1 st2">+</text>
</svg>
