<?xml version="1.0" encoding="utf-8"?>
<!-- Generator: Adobe Illustrator 19.0.0, SVG Export Plug-In . SVG Version: 6.00 Build 0)  -->
<svg version="1.1" id="Capa_1" xmlns="http://www.w3.org/2000/svg" xmlns:xlink="http://www.w3.org/1999/xlink" x="0px" y="0px"
	 viewBox="98 -98.3 296.3 296.3" style="enable-background:new 98 -98.3 296.3 296.3;" xml:space="preserve">
<style type="text/css">
	.st0{fill:#FFFFFF;}
</style>
<g>
	<path class="st0" d="M124,198h244.4c0-61-23.2-94.5-57.9-110.2l-48.6,37.9L245.5,101l-15.3,24.9l-49.1-37.6
		C146.8,104,124,137,124,198z M296.5,125l15.5,15.1l15.5-15.1c0,0,8.3,15.8-15.5,33.8C288.2,140.8,296.5,125,296.5,125z"/>
	<path class="st0" d="M245.5,101l40.9-20.8c0,0,0,0-0.1,0c23.7-13.8,39.6-39.5,39.6-68.9c0-8.1-1.2-15.9-3.5-23.3
		c-15.9,7.9-43.9,19-76.3,19S185.8-4,169.9-12c-2.2,7.4-3.5,15.2-3.5,23.3c0,29.4,15.9,55,39.5,68.8L245.5,101z"/>
	<path class="st0" d="M245.8-8.9c34.6,0,65-14.5,76-21v-14.8c15-5.7,23.2-13,23.2-20.9c0-18-44.2-32.7-98.9-32.7S147-83.7,147-65.7
		c0,8,8.9,15.3,22.9,20.9v14.8C181.8-23.4,211.4-8.9,245.8-8.9z M263.2-53c0,2.5-0.6,4.9-1.5,7h0.5c4.4,0,8,3.6,8,8s-3.6,8-8,8h-33
		c-4.4,0-8-3.6-8-8s3.6-8,8-8h1.5c-1-2.1-1.5-4.5-1.5-7c0-9.4,7.6-17,17-17S263.2-62.4,263.2-53z"/>
</g>
</svg>
