<?xml version="1.0" encoding="utf-8"?>
<!-- Generator: Adobe Illustrator 19.0.0, SVG Export Plug-In . SVG Version: 6.00 Build 0)  -->
<svg version="1.1" id="Layer_1" xmlns="http://www.w3.org/2000/svg" xmlns:xlink="http://www.w3.org/1999/xlink" x="0px" y="0px"
	 viewBox="450 -229.5 1000 558.9" style="enable-background:new 450 -229.5 1000 558.9;" xml:space="preserve">
<style type="text/css">
	.st0{opacity:0.1;}
</style>
<g class="st0">
	<path d="M993.6-143.5v-45.4c0-21.9-20.3-40.6-42.2-40.6l0,0c-21.9,0.5-43.2,18.7-43.2,41.1v45.4
		c-330.9,26.2-383.3,357.1-383.3,357.1h850.3C1375.2,214.1,1329.8-120,993.6-143.5z M1235.4,168.2c0,0-38.4-11.7-56-18.1
		c-3.2-25.1-14.9-102.5-80.1-161.7c-43.8-40-105.7-55-105.7-55V-80c0,0,104.6-2.1,175.1,74.2C1239.1,70.5,1235.4,168.2,1235.4,168.2
		z"/>
	<path d="M1432.9,251.5H472.1c0,0-16,4.3-11.2,19.7c4.8,16,69.9,56.6,85.9,58.2c20.8-0.5,807-0.5,807-0.5s61.9-23.5,80.6-52.3
		C1447.8,253.6,1432.9,251.5,1432.9,251.5z"/>
</g>
</svg>
