<?xml version="1.0" encoding="utf-8"?>
<!-- Generator: Adobe Illustrator 19.0.0, SVG Export Plug-In . SVG Version: 6.00 Build 0)  -->
<svg version="1.1" id="Capa_1" xmlns="http://www.w3.org/2000/svg" xmlns:xlink="http://www.w3.org/1999/xlink" x="0px" y="0px"
	 viewBox="197 -111.3 493.5 323.1" style="enable-background:new 197 -111.3 493.5 323.1;" xml:space="preserve">
<path d="M641.6-111.3H245.9c-27,0-48.9,22-48.9,48.9v225.2c0,27,22,48.9,48.9,48.9h395.6c27,0,48.9-22,48.9-48.9V-62.3
	C690.5-89.3,668.5-111.3,641.6-111.3z M657.9-62.3v225.2c0,2.6-0.7,4.9-1.8,7.1L540.7,54.6L657.8-62.5
	C657.8-62.4,657.9-62.4,657.9-62.3z M229.6,162.8V-62.3c0-0.1,0-0.1,0-0.2L346.8,54.6L231.4,169.9
	C230.4,167.8,229.6,165.4,229.6,162.8z M448.8,100.4c-2.7,2.7-7.4,2.7-10.1,0l-179-179.1h368.2L448.8,100.4z M369.8,77.7l45.8,45.8
	c7.5,7.5,17.5,11.6,28.1,11.6c10.6,0,20.6-4.1,28.1-11.6l45.8-45.8l101.5,101.5H268.3L369.8,77.7z"/>
</svg>
